<?xml version="1.0" encoding="UTF-8" standalone="no"?>
<svg width="20px" height="20px" viewBox="0 0 20 20" version="1.1" xmlns="http://www.w3.org/2000/svg" xmlns:xlink="http://www.w3.org/1999/xlink">
    <!-- Generator: sketchtool 3.7.2 (28276) - http://www.bohemiancoding.com/sketch -->
    <title>3CF20FA0-AD40-4E9B-A993-9F59655406D6</title>
    <desc>Created with sketchtool.</desc>
    <defs></defs>
    <g id="Symbols" stroke="none" stroke-width="1" fill="none" fill-rule="evenodd">
        <g id="open-chat-btn" transform="translate(-18.000000, -18.000000)">
            <g id="ic-chat-black-48-px">
                <g transform="translate(16.000000, 16.000000)">
                    <g id="Group">
                        <path d="M20,2 L4,2 C2.9,2 2.01,2.9 2.01,4 L2,22 L6,18 L20,18 C21.1,18 22,17.1 22,16 L22,4 C22,2.9 21.1,2 20,2 L20,2 Z M6,9 L18,9 L18,11 L6,11 L6,9 L6,9 Z M14,14 L6,14 L6,12 L14,12 L14,14 L14,14 Z M18,8 L6,8 L6,6 L18,6 L18,8 L18,8 Z" id="Shape" fill="#FFFFFF"></path>
                        <polygon id="Shape" points="0 0 24 0 24 24 0 24"></polygon>
                    </g>
                </g>
            </g>
        </g>
    </g>
</svg>